<svg width="26" height="26" viewBox="0 0 26 26" fill="none" xmlns="http://www.w3.org/2000/svg">
<path fill-rule="evenodd" clip-rule="evenodd" d="M12.5144 0.5C5.87904 0.5 0.5 5.76024 0.5 12.2491C0.5 18.7379 5.87904 23.9982 12.5144 23.9982C15.3523 23.9982 17.9604 23.0359 20.0162 21.4269L23.9212 25.2358L24.0251 25.3233C24.3877 25.5857 24.9017 25.5558 25.2297 25.2341C25.5906 24.8803 25.5898 24.3074 25.228 23.9545L21.3689 20.1904C23.3312 18.0993 24.5289 15.311 24.5289 12.2491C24.5289 5.76024 19.1498 0.5 12.5144 0.5ZM12.5144 2.30968C18.1278 2.30968 22.6783 6.7597 22.6783 12.2491C22.6783 17.7385 18.1278 22.1885 12.5144 22.1885C6.90108 22.1885 2.35055 17.7385 2.35055 12.2491C2.35055 6.7597 6.90108 2.30968 12.5144 2.30968Z" fill="#333333"/>
</svg>
